# xmcd
#
# Track frame offsets: 
#        150
#        38662
#        61653
#        86457
#        148700
#        185975
#        199763
#        273316
#        282217
#
# Disc length: 4256 seconds
#
# Revision: 0
# Processed by: cddbd v1.5.2PL0 Copyright (c) Steve Scherf et al.
# Submitted via: ExactAudioCopyFreeDBPlugin 1.0
#
DISCID=80109e09
DTITLE=Various Artist - DIEM 1987-2012 - CD2
DYEAR=2012
DGENRE=Rock
TTITLE0=Bjørn Svin - 7 Cirkler i 1 Matrix
TTITLE1=Nyvang, Michael - Collage IV Corona
TTITLE2=Vectral - AC3
TTITLE3=Tjørnhøj-Thomsen, Line - Lauria
TTITLE4=Hansen, Hans - Passaics Monumenter
TTITLE5=Teller, Jørgen - Sparklings
TTITLE6=Alsted, Birgitte - Zu Versuchen Die Fragen
TTITLE7=Forsberg, Sofus - Homework
TTITLE8=Lunding, Rasmus - On Learning How To Kill
EXTD=
EXTT0=
EXTT1=
EXTT2=
EXTT3=
EXTT4=
EXTT5=
EXTT6=
EXTT7=
EXTT8=
PLAYORDER=
